<?xml version="1.0" encoding="UTF-8"?>
<svg
  xmlns="http://www.w3.org/2000/svg"
  xmlns:xlink="http://www.w3.org/1999/xlink"
  width="1225.9"
  height="1725.0">
  <g id="surface" transform="scale(10.0,10.0)">
    <path
      id="blue-rect"
      style="stroke:none;fill-rule:nonzero;fill-opacity:1;"
      fill="#000000"
      d="M 0.0585938 0.902344 L 122.089844 0.902344 L 122.089844 172 L 0.0585938 172 Z "/>
    <path
      id="4D"
      style="stroke:none;fill-rule:nonzero;fill:rgb(100%,100%,100%);fill-opacity:1;"
      d="M 92.128906 149.0625 C 86.21875 154.1875 79.515625 156.15625 69.464844 156.15625 C 61.679688 156.15625 57.757812 154.089844 56.476562 152.214844 C 55.6875 151.132812 55.257812 147.191406 55.160156 144.726562 C 55.125 144.054688 55.085938 142.648438 55.058594 140.644531 L 62.132812 140.636719 C 63.808594 140.636719 64.300781 140.242188 64.792969 139.355469 C 65.484375 138.074219 66.46875 134.035156 66.46875 133.148438 C 66.46875 132.359375 66.074219 131.964844 65.582031 131.964844 C 64.988281 131.964844 63.710938 132.953125 61.050781 132.953125 L 54.984375 132.953125 L 55 92.691406 C 55 91.609375 55.355469 91.113281 56.242188 90.722656 C 57.03125 90.328125 60.988281 90.03125 62.960938 90.03125 C 70.648438 90.03125 81.878906 91.214844 90.945312 99.886719 C 95.183594 103.925781 100.40625 112.007812 100.40625 124.523438 C 100.40625 134.675781 98.4375 143.640625 92.128906 149.0625 Z M 104.054688 96.632812 C 93.3125 85.398438 76.855469 85.398438 64.535156 85.398438 C 60.667969 85.398438 57.335938 85.59375 57.097656 85.621094 C 54.445312 85.929688 54.683594 84.699219 53.019531 84.617188 C 51.941406 84.566406 51.25 85.011719 49.679688 86.820312 C 48.851562 87.773438 8.816406 135.808594 8.128906 136.597656 C 7.734375 137.089844 6.847656 137.976562 6.847656 139.160156 C 6.847656 140.242188 8.128906 140.636719 9.3125 140.636719 L 39.898438 140.636719 L 39.898438 132.953125 L 17.292969 132.953125 C 20.644531 128.515625 40.75 105.355469 43.019531 102.5 L 43.019531 140.648438 C 43.019531 140.648438 43.046875 147.21875 42.71875 152.5625 C 42.53125 155.617188 41.832031 157.164062 38.085938 157.558594 C 36.511719 157.757812 34.34375 157.855469 33.453125 157.855469 C 32.964844 157.855469 32.667969 158.460938 32.667969 159.152344 C 32.667969 159.839844 33.160156 160.347656 34.242188 160.347656 C 39.664062 160.347656 44.984375 160.050781 47.746094 160.050781 C 56.394531 160.050781 66.101562 160.789062 69.859375 160.789062 C 88.089844 160.789062 98.339844 153.792969 102.871094 149.160156 C 108.390625 143.542969 113.613281 134.082031 113.613281 121.664062 C 113.613281 109.9375 108.980469 101.757812 104.054688 96.632812 "/>
    </g>  
<defs/>
  <use href="#surface" y="0" />
</svg>
